<svg xmlns="http://www.w3.org/2000/svg" viewBox="0 0 1200 340" width="1200" height="340"><circle cx="18.1" cy="5.6" r="1.50" fill="#221f1b" opacity="0.160"></circle><circle cx="43.8" cy="34.5" r="1.50" fill="#221f1b" opacity="0.160"></circle><circle cx="77.2" cy="15.2" r="1.50" fill="#221f1b" opacity="0.160"></circle><circle cx="113.5" cy="31.4" r="1.50" fill="#221f1b" opacity="0.160"></circle><circle cx="108.1" cy="34.9" r="1.50" fill="#221f1b" opacity="0.160"></circle><circle cx="141.8" cy="1.1" r="1.50" fill="#221f1b" opacity="0.160"></circle><circle cx="202.7" cy="-4.5" r="1.50" fill="#221f1b" opacity="0.160"></circle><circle cx="205.1" cy="-5.7" r="1.50" fill="#221f1b" opacity="0.160"></circle><circle cx="220.0" cy="21.3" r="1.50" fill="#221f1b" opacity="0.160"></circle><circle cx="283.8" cy="27.0" r="1.50" fill="#221f1b" opacity="0.160"></circle><circle cx="304.1" cy="-4.3" r="1.50" fill="#221f1b" opacity="0.160"></circle><circle cx="325.3" cy="13.9" r="1.50" fill="#221f1b" opacity="0.214"></circle><circle cx="341.8" cy="24.9" r="1.50" fill="#221f1b" opacity="0.214"></circle><circle cx="366.1" cy="22.4" r="1.50" fill="#221f1b" opacity="0.214"></circle><circle cx="396.2" cy="0.9" r="1.50" fill="#221f1b" opacity="0.214"></circle><circle cx="440.0" cy="20.6" r="1.50" fill="#221f1b" opacity="0.214"></circle><circle cx="472.1" cy="22.8" r="1.50" fill="#221f1b" opacity="0.214"></circle><circle cx="499.3" cy="20.7" r="1.50" fill="#221f1b" opacity="0.214"></circle><circle cx="505.1" cy="9.5" r="1.50" fill="#221f1b" opacity="0.214"></circle><circle cx="536.3" cy="18.4" r="1.50" fill="#221f1b" opacity="0.214"></circle><circle cx="570.8" cy="8.4" r="1.50" fill="#221f1b" opacity="0.214"></circle><circle cx="605.7" cy="11.6" r="1.50" fill="#221f1b" opacity="0.272"></circle><circle cx="634.7" cy="14.7" r="1.50" fill="#221f1b" opacity="0.272"></circle><circle cx="654.2" cy="13.5" r="1.50" fill="#221f1b" opacity="0.272"></circle><circle cx="686.9" cy="12.9" r="1.50" fill="#221f1b" opacity="0.272"></circle><circle cx="711.5" cy="18.3" r="1.50" fill="#221f1b" opacity="0.272"></circle><circle cx="743.3" cy="12.2" r="1.50" fill="#221f1b" opacity="0.272"></circle><circle cx="772.7" cy="15.1" r="1.50" fill="#221f1b" opacity="0.272"></circle><circle cx="796.7" cy="14.9" r="1.50" fill="#221f1b" opacity="0.272"></circle><circle cx="822.7" cy="8.8" r="1.50" fill="#221f1b" opacity="0.272"></circle><circle cx="855.2" cy="14.3" r="1.50" fill="#221f1b" opacity="0.272"></circle><circle cx="882.0" cy="14.0" r="1.50" fill="#221f1b" opacity="0.320"></circle><circle cx="910.0" cy="14.0" r="1.50" fill="#221f1b" opacity="0.320"></circle><circle cx="938.0" cy="14.0" r="1.50" fill="#221f1b" opacity="0.320"></circle><circle cx="966.0" cy="14.0" r="1.50" fill="#221f1b" opacity="0.320"></circle><circle cx="994.0" cy="14.0" r="1.50" fill="#221f1b" opacity="0.320"></circle><circle cx="1022.0" cy="14.0" r="1.50" fill="#221f1b" opacity="0.320"></circle><circle cx="1050.0" cy="14.0" r="1.50" fill="#221f1b" opacity="0.320"></circle><circle cx="1078.0" cy="14.0" r="1.50" fill="#221f1b" opacity="0.320"></circle><circle cx="1106.0" cy="14.0" r="1.50" fill="#221f1b" opacity="0.320"></circle><circle cx="1134.0" cy="14.0" r="1.50" fill="#221f1b" opacity="0.320"></circle><circle cx="1162.0" cy="14.0" r="1.50" fill="#221f1b" opacity="0.320"></circle><circle cx="25.2" cy="39.1" r="1.50" fill="#221f1b" opacity="0.160"></circle><circle cx="36.4" cy="42.4" r="1.50" fill="#221f1b" opacity="0.160"></circle><circle cx="59.7" cy="33.3" r="1.50" fill="#221f1b" opacity="0.160"></circle><circle cx="112.4" cy="32.9" r="1.50" fill="#221f1b" opacity="0.160"></circle><circle cx="130.0" cy="23.5" r="1.50" fill="#221f1b" opacity="0.160"></circle><circle cx="169.8" cy="49.9" r="1.50" fill="#221f1b" opacity="0.160"></circle><circle cx="179.8" cy="28.3" r="1.50" fill="#221f1b" opacity="0.160"></circle><circle cx="223.8" cy="33.1" r="1.50" fill="#221f1b" opacity="0.160"></circle><circle cx="226.3" cy="40.1" r="1.50" fill="#221f1b" opacity="0.160"></circle><circle cx="277.5" cy="36.3" r="1.50" fill="#221f1b" opacity="0.160"></circle><circle cx="273.0" cy="38.7" r="1.50" fill="#221f1b" opacity="0.160"></circle><circle cx="311.1" cy="55.6" r="1.50" fill="#221f1b" opacity="0.214"></circle><circle cx="343.8" cy="44.1" r="1.50" fill="#221f1b" opacity="0.214"></circle><circle cx="380.6" cy="53.1" r="1.50" fill="#221f1b" opacity="0.214"></circle><circle cx="412.1" cy="55.2" r="1.50" fill="#221f1b" opacity="0.214"></circle><circle cx="427.3" cy="34.4" r="1.50" fill="#221f1b" opacity="0.214"></circle><circle cx="461.9" cy="39.1" r="1.50" fill="#221f1b" opacity="0.214"></circle><circle cx="497.9" cy="42.2" r="1.50" fill="#221f1b" opacity="0.214"></circle><circle cx="530.3" cy="49.7" r="1.50" fill="#221f1b" opacity="0.214"></circle><circle cx="546.1" cy="53.5" r="1.50" fill="#221f1b" opacity="0.214"></circle><circle cx="570.9" cy="44.3" r="1.50" fill="#221f1b" opacity="0.214"></circle><circle cx="606.9" cy="41.5" r="1.50" fill="#221f1b" opacity="0.272"></circle><circle cx="628.0" cy="45.1" r="1.50" fill="#221f1b" opacity="0.272"></circle><circle cx="663.0" cy="46.7" r="1.50" fill="#221f1b" opacity="0.272"></circle><circle cx="682.0" cy="38.8" r="1.50" fill="#221f1b" opacity="0.272"></circle><circle cx="712.0" cy="36.3" r="1.50" fill="#221f1b" opacity="0.272"></circle><circle cx="737.4" cy="44.0" r="1.50" fill="#221f1b" opacity="0.272"></circle><circle cx="774.0" cy="38.7" r="1.50" fill="#221f1b" opacity="0.272"></circle><circle cx="798.7" cy="39.3" r="1.50" fill="#221f1b" opacity="0.272"></circle><circle cx="822.0" cy="43.3" r="1.50" fill="#221f1b" opacity="0.272"></circle><circle cx="855.8" cy="47.3" r="1.50" fill="#221f1b" opacity="0.272"></circle><circle cx="882.0" cy="42.0" r="1.50" fill="#221f1b" opacity="0.320"></circle><circle cx="910.0" cy="42.0" r="1.50" fill="#221f1b" opacity="0.320"></circle><circle cx="938.0" cy="42.0" r="1.50" fill="#221f1b" opacity="0.320"></circle><circle cx="966.0" cy="42.0" r="1.50" fill="#221f1b" opacity="0.320"></circle><circle cx="994.0" cy="42.0" r="1.50" fill="#221f1b" opacity="0.320"></circle><circle cx="1022.0" cy="42.0" r="1.50" fill="#221f1b" opacity="0.320"></circle><circle cx="1050.0" cy="42.0" r="1.50" fill="#221f1b" opacity="0.320"></circle><circle cx="1078.0" cy="42.0" r="1.50" fill="#221f1b" opacity="0.320"></circle><circle cx="1106.0" cy="42.0" r="1.50" fill="#221f1b" opacity="0.320"></circle><circle cx="1134.0" cy="42.0" r="1.50" fill="#221f1b" opacity="0.320"></circle><circle cx="1162.0" cy="42.0" r="1.50" fill="#221f1b" opacity="0.320"></circle><circle cx="18.5" cy="81.2" r="1.50" fill="#221f1b" opacity="0.160"></circle><circle cx="45.6" cy="51.2" r="1.50" fill="#221f1b" opacity="0.160"></circle><circle cx="86.6" cy="69.0" r="1.50" fill="#221f1b" opacity="0.160"></circle><circle cx="95.2" cy="83.7" r="1.50" fill="#221f1b" opacity="0.160"></circle><circle cx="136.7" cy="55.6" r="1.50" fill="#221f1b" opacity="0.160"></circle><circle cx="170.8" cy="62.6" r="1.50" fill="#221f1b" opacity="0.160"></circle><circle cx="165.1" cy="58.2" r="1.50" fill="#221f1b" opacity="0.160"></circle><circle cx="191.7" cy="81.0" r="1.50" fill="#221f1b" opacity="0.160"></circle><circle cx="249.2" cy="73.3" r="1.50" fill="#221f1b" opacity="0.160"></circle><circle cx="245.5" cy="66.1" r="1.50" fill="#221f1b" opacity="0.160"></circle><circle cx="307.2" cy="67.6" r="1.50" fill="#221f1b" opacity="0.160"></circle><circle cx="313.2" cy="62.2" r="1.50" fill="#221f1b" opacity="0.214"></circle><circle cx="340.6" cy="72.7" r="1.50" fill="#221f1b" opacity="0.214"></circle><circle cx="380.3" cy="64.8" r="1.50" fill="#221f1b" opacity="0.214"></circle><circle cx="410.4" cy="59.6" r="1.50" fill="#221f1b" opacity="0.214"></circle><circle cx="443.8" cy="59.2" r="1.50" fill="#221f1b" opacity="0.214"></circle><circle cx="475.6" cy="60.0" r="1.50" fill="#221f1b" opacity="0.214"></circle><circle cx="483.3" cy="58.6" r="1.50" fill="#221f1b" opacity="0.214"></circle><circle cx="523.3" cy="68.3" r="1.50" fill="#221f1b" opacity="0.214"></circle><circle cx="551.0" cy="57.0" r="1.50" fill="#221f1b" opacity="0.214"></circle><circle cx="561.8" cy="56.2" r="1.50" fill="#221f1b" opacity="0.214"></circle><circle cx="597.2" cy="69.9" r="1.50" fill="#221f1b" opacity="0.272"></circle><circle cx="624.5" cy="76.1" r="1.50" fill="#221f1b" opacity="0.272"></circle><circle cx="655.6" cy="65.6" r="1.50" fill="#221f1b" opacity="0.272"></circle><circle cx="682.4" cy="67.8" r="1.50" fill="#221f1b" opacity="0.272"></circle><circle cx="713.6" cy="70.2" r="1.50" fill="#221f1b" opacity="0.272"></circle><circle cx="748.1" cy="72.6" r="1.50" fill="#221f1b" opacity="0.272"></circle><circle cx="771.2" cy="65.7" r="1.50" fill="#221f1b" opacity="0.272"></circle><circle cx="795.3" cy="73.7" r="1.50" fill="#221f1b" opacity="0.272"></circle><circle cx="829.2" cy="70.0" r="1.50" fill="#221f1b" opacity="0.272"></circle><circle cx="848.8" cy="72.8" r="1.50" fill="#221f1b" opacity="0.272"></circle><circle cx="882.0" cy="70.0" r="1.50" fill="#221f1b" opacity="0.320"></circle><circle cx="910.0" cy="70.0" r="1.50" fill="#221f1b" opacity="0.320"></circle><circle cx="938.0" cy="70.0" r="1.50" fill="#221f1b" opacity="0.320"></circle><circle cx="966.0" cy="70.0" r="1.50" fill="#221f1b" opacity="0.320"></circle><circle cx="994.0" cy="70.0" r="1.50" fill="#221f1b" opacity="0.320"></circle><circle cx="1022.0" cy="70.0" r="1.50" fill="#221f1b" opacity="0.320"></circle><circle cx="1050.0" cy="70.0" r="1.50" fill="#221f1b" opacity="0.320"></circle><circle cx="1078.0" cy="70.0" r="1.50" fill="#221f1b" opacity="0.320"></circle><circle cx="1106.0" cy="70.0" r="1.50" fill="#221f1b" opacity="0.320"></circle><circle cx="1134.0" cy="70.0" r="1.50" fill="#221f1b" opacity="0.320"></circle><circle cx="1162.0" cy="70.0" r="1.50" fill="#221f1b" opacity="0.320"></circle><circle cx="31.5" cy="98.0" r="1.50" fill="#221f1b" opacity="0.160"></circle><circle cx="57.8" cy="117.3" r="1.50" fill="#221f1b" opacity="0.160"></circle><circle cx="88.3" cy="113.4" r="1.50" fill="#221f1b" opacity="0.160"></circle><circle cx="100.0" cy="78.6" r="1.50" fill="#221f1b" opacity="0.160"></circle><circle cx="134.6" cy="80.5" r="1.50" fill="#221f1b" opacity="0.160"></circle><circle cx="158.4" cy="78.5" r="1.50" fill="#221f1b" opacity="0.160"></circle><circle cx="201.1" cy="77.5" r="1.50" fill="#221f1b" opacity="0.160"></circle><circle cx="224.7" cy="112.4" r="1.50" fill="#221f1b" opacity="0.160"></circle><circle cx="218.8" cy="95.4" r="1.50" fill="#221f1b" opacity="0.160"></circle><circle cx="249.4" cy="98.7" r="1.50" fill="#221f1b" opacity="0.160"></circle><circle cx="275.1" cy="91.4" r="1.50" fill="#221f1b" opacity="0.160"></circle><circle cx="314.0" cy="95.9" r="1.50" fill="#221f1b" opacity="0.214"></circle><circle cx="357.8" cy="105.7" r="1.50" fill="#221f1b" opacity="0.214"></circle><circle cx="389.8" cy="94.2" r="1.50" fill="#221f1b" opacity="0.214"></circle><circle cx="414.9" cy="99.2" r="1.50" fill="#221f1b" opacity="0.214"></circle><circle cx="434.3" cy="87.7" r="1.50" fill="#221f1b" opacity="0.214"></circle><circle cx="464.0" cy="98.7" r="1.50" fill="#221f1b" opacity="0.214"></circle><circle cx="478.8" cy="91.6" r="1.50" fill="#221f1b" opacity="0.214"></circle><circle cx="504.4" cy="88.8" r="1.50" fill="#221f1b" opacity="0.214"></circle><circle cx="540.9" cy="92.6" r="1.50" fill="#221f1b" opacity="0.214"></circle><circle cx="574.9" cy="111.5" r="1.50" fill="#221f1b" opacity="0.214"></circle><circle cx="602.4" cy="99.0" r="1.50" fill="#221f1b" opacity="0.272"></circle><circle cx="635.1" cy="103.4" r="1.50" fill="#221f1b" opacity="0.272"></circle><circle cx="663.4" cy="98.8" r="1.50" fill="#221f1b" opacity="0.272"></circle><circle cx="689.1" cy="92.8" r="1.50" fill="#221f1b" opacity="0.272"></circle><circle cx="709.6" cy="97.7" r="1.50" fill="#221f1b" opacity="0.272"></circle><circle cx="747.4" cy="99.9" r="1.50" fill="#221f1b" opacity="0.272"></circle><circle cx="764.0" cy="94.1" r="1.50" fill="#221f1b" opacity="0.272"></circle><circle cx="801.2" cy="101.6" r="1.50" fill="#221f1b" opacity="0.272"></circle><circle cx="828.8" cy="101.7" r="1.50" fill="#221f1b" opacity="0.272"></circle><circle cx="852.9" cy="92.2" r="1.50" fill="#221f1b" opacity="0.272"></circle><circle cx="882.0" cy="98.0" r="1.50" fill="#221f1b" opacity="0.320"></circle><circle cx="910.0" cy="98.0" r="1.50" fill="#221f1b" opacity="0.320"></circle><circle cx="938.0" cy="98.0" r="1.50" fill="#221f1b" opacity="0.320"></circle><circle cx="966.0" cy="98.0" r="1.50" fill="#221f1b" opacity="0.320"></circle><circle cx="994.0" cy="98.0" r="1.50" fill="#221f1b" opacity="0.320"></circle><circle cx="1022.0" cy="98.0" r="1.50" fill="#221f1b" opacity="0.320"></circle><circle cx="1050.0" cy="98.0" r="1.50" fill="#221f1b" opacity="0.320"></circle><circle cx="1078.0" cy="98.0" r="1.50" fill="#221f1b" opacity="0.320"></circle><circle cx="1106.0" cy="98.0" r="1.50" fill="#221f1b" opacity="0.320"></circle><circle cx="1134.0" cy="98.0" r="1.50" fill="#221f1b" opacity="0.320"></circle><circle cx="1162.0" cy="98.0" r="1.50" fill="#221f1b" opacity="0.320"></circle><circle cx="3.4" cy="133.6" r="1.50" fill="#221f1b" opacity="0.160"></circle><circle cx="62.4" cy="145.5" r="1.50" fill="#221f1b" opacity="0.160"></circle><circle cx="76.2" cy="133.8" r="1.50" fill="#221f1b" opacity="0.160"></circle><circle cx="101.4" cy="140.1" r="1.50" fill="#221f1b" opacity="0.160"></circle><circle cx="131.9" cy="128.0" r="1.50" fill="#221f1b" opacity="0.160"></circle><circle cx="166.3" cy="126.5" r="1.50" fill="#221f1b" opacity="0.160"></circle><circle cx="165.5" cy="116.8" r="1.50" fill="#221f1b" opacity="0.160"></circle><circle cx="230.8" cy="141.2" r="1.50" fill="#221f1b" opacity="0.160"></circle><circle cx="258.9" cy="132.6" r="1.50" fill="#221f1b" opacity="0.160"></circle><circle cx="251.2" cy="132.9" r="1.50" fill="#221f1b" opacity="0.160"></circle><circle cx="284.4" cy="146.8" r="1.50" fill="#221f1b" opacity="0.160"></circle><circle cx="325.7" cy="117.7" r="1.50" fill="#221f1b" opacity="0.214"></circle><circle cx="362.5" cy="126.5" r="1.50" fill="#221f1b" opacity="0.214"></circle><circle cx="369.0" cy="133.0" r="1.50" fill="#221f1b" opacity="0.214"></circle><circle cx="393.3" cy="113.3" r="1.50" fill="#221f1b" opacity="0.214"></circle><circle cx="430.1" cy="131.2" r="1.50" fill="#221f1b" opacity="0.214"></circle><circle cx="470.6" cy="115.6" r="1.50" fill="#221f1b" opacity="0.214"></circle><circle cx="492.2" cy="128.9" r="1.50" fill="#221f1b" opacity="0.214"></circle><circle cx="519.3" cy="116.5" r="1.50" fill="#221f1b" opacity="0.214"></circle><circle cx="545.8" cy="122.5" r="1.50" fill="#221f1b" opacity="0.214"></circle><circle cx="564.4" cy="130.6" r="1.50" fill="#221f1b" opacity="0.214"></circle><circle cx="599.4" cy="121.5" r="1.50" fill="#221f1b" opacity="0.272"></circle><circle cx="625.1" cy="130.3" r="1.50" fill="#221f1b" opacity="0.272"></circle><circle cx="658.1" cy="130.4" r="1.50" fill="#221f1b" opacity="0.272"></circle><circle cx="690.7" cy="131.6" r="1.50" fill="#221f1b" opacity="0.272"></circle><circle cx="710.1" cy="131.8" r="1.50" fill="#221f1b" opacity="0.272"></circle><circle cx="738.1" cy="125.5" r="1.50" fill="#221f1b" opacity="0.272"></circle><circle cx="767.5" cy="127.2" r="1.50" fill="#221f1b" opacity="0.272"></circle><circle cx="792.9" cy="120.8" r="1.50" fill="#221f1b" opacity="0.272"></circle><circle cx="825.3" cy="121.8" r="1.50" fill="#221f1b" opacity="0.272"></circle><circle cx="859.7" cy="128.0" r="1.50" fill="#221f1b" opacity="0.272"></circle><circle cx="882.0" cy="126.0" r="1.50" fill="#221f1b" opacity="0.320"></circle><circle cx="910.0" cy="126.0" r="1.50" fill="#221f1b" opacity="0.320"></circle><circle cx="938.0" cy="126.0" r="1.50" fill="#221f1b" opacity="0.320"></circle><circle cx="966.0" cy="126.0" r="1.50" fill="#221f1b" opacity="0.320"></circle><circle cx="994.0" cy="126.0" r="1.50" fill="#221f1b" opacity="0.320"></circle><circle cx="1022.0" cy="126.0" r="1.50" fill="#221f1b" opacity="0.320"></circle><circle cx="1050.0" cy="126.0" r="1.50" fill="#221f1b" opacity="0.320"></circle><circle cx="1078.0" cy="126.0" r="1.50" fill="#221f1b" opacity="0.320"></circle><circle cx="1106.0" cy="126.0" r="1.50" fill="#221f1b" opacity="0.320"></circle><circle cx="1134.0" cy="126.0" r="1.50" fill="#221f1b" opacity="0.320"></circle><circle cx="1162.0" cy="126.0" r="1.50" fill="#221f1b" opacity="0.320"></circle><circle cx="31.1" cy="139.4" r="1.50" fill="#221f1b" opacity="0.160"></circle><circle cx="35.1" cy="137.6" r="1.50" fill="#221f1b" opacity="0.160"></circle><circle cx="90.8" cy="164.7" r="1.50" fill="#221f1b" opacity="0.160"></circle><circle cx="77.4" cy="151.6" r="1.50" fill="#221f1b" opacity="0.160"></circle><circle cx="140.0" cy="140.8" r="1.50" fill="#221f1b" opacity="0.160"></circle><circle cx="141.4" cy="171.9" r="1.50" fill="#221f1b" opacity="0.160"></circle><circle cx="201.7" cy="153.2" r="1.50" fill="#221f1b" opacity="0.160"></circle><circle cx="220.9" cy="158.5" r="1.50" fill="#221f1b" opacity="0.160"></circle><circle cx="251.9" cy="161.0" r="1.50" fill="#221f1b" opacity="0.160"></circle><circle cx="273.3" cy="148.1" r="1.50" fill="#221f1b" opacity="0.160"></circle><circle cx="306.3" cy="139.2" r="1.50" fill="#221f1b" opacity="0.160"></circle><circle cx="318.3" cy="167.4" r="1.50" fill="#221f1b" opacity="0.214"></circle><circle cx="361.9" cy="148.1" r="1.50" fill="#221f1b" opacity="0.214"></circle><circle cx="368.7" cy="149.0" r="1.50" fill="#221f1b" opacity="0.214"></circle><circle cx="407.8" cy="159.5" r="1.50" fill="#221f1b" opacity="0.214"></circle><circle cx="430.8" cy="158.8" r="1.50" fill="#221f1b" opacity="0.214"></circle><circle cx="472.9" cy="156.9" r="1.50" fill="#221f1b" opacity="0.214"></circle><circle cx="500.4" cy="158.9" r="1.50" fill="#221f1b" opacity="0.214"></circle><circle cx="517.2" cy="143.9" r="1.50" fill="#221f1b" opacity="0.214"></circle><circle cx="557.2" cy="151.3" r="1.50" fill="#221f1b" opacity="0.214"></circle><circle cx="569.0" cy="143.7" r="1.50" fill="#221f1b" opacity="0.214"></circle><circle cx="599.2" cy="157.2" r="1.50" fill="#221f1b" opacity="0.272"></circle><circle cx="635.1" cy="155.2" r="1.50" fill="#221f1b" opacity="0.272"></circle><circle cx="659.9" cy="157.6" r="1.50" fill="#221f1b" opacity="0.272"></circle><circle cx="683.0" cy="158.9" r="1.50" fill="#221f1b" opacity="0.272"></circle><circle cx="714.6" cy="152.9" r="1.50" fill="#221f1b" opacity="0.272"></circle><circle cx="735.7" cy="150.8" r="1.50" fill="#221f1b" opacity="0.272"></circle><circle cx="770.1" cy="152.3" r="1.50" fill="#221f1b" opacity="0.272"></circle><circle cx="800.2" cy="159.6" r="1.50" fill="#221f1b" opacity="0.272"></circle><circle cx="823.5" cy="148.0" r="1.50" fill="#221f1b" opacity="0.272"></circle><circle cx="852.7" cy="147.8" r="1.50" fill="#221f1b" opacity="0.272"></circle><circle cx="882.0" cy="154.0" r="1.50" fill="#221f1b" opacity="0.320"></circle><circle cx="910.0" cy="154.0" r="1.50" fill="#221f1b" opacity="0.320"></circle><circle cx="938.0" cy="154.0" r="1.50" fill="#221f1b" opacity="0.320"></circle><circle cx="966.0" cy="154.0" r="1.50" fill="#221f1b" opacity="0.320"></circle><circle cx="994.0" cy="154.0" r="1.50" fill="#221f1b" opacity="0.320"></circle><circle cx="1022.0" cy="154.0" r="1.50" fill="#221f1b" opacity="0.320"></circle><circle cx="1050.0" cy="154.0" r="1.50" fill="#221f1b" opacity="0.320"></circle><circle cx="1078.0" cy="154.0" r="1.50" fill="#221f1b" opacity="0.320"></circle><circle cx="1106.0" cy="154.0" r="1.50" fill="#221f1b" opacity="0.320"></circle><circle cx="1134.0" cy="154.0" r="1.50" fill="#221f1b" opacity="0.320"></circle><circle cx="1162.0" cy="154.0" r="1.50" fill="#221f1b" opacity="0.320"></circle><circle cx="3.9" cy="200.9" r="1.50" fill="#221f1b" opacity="0.160"></circle><circle cx="33.1" cy="199.5" r="1.50" fill="#221f1b" opacity="0.160"></circle><circle cx="86.5" cy="176.5" r="1.50" fill="#221f1b" opacity="0.160"></circle><circle cx="104.8" cy="169.0" r="1.50" fill="#221f1b" opacity="0.160"></circle><circle cx="118.6" cy="199.3" r="1.50" fill="#221f1b" opacity="0.160"></circle><circle cx="163.4" cy="184.4" r="1.50" fill="#221f1b" opacity="0.160"></circle><circle cx="187.2" cy="182.8" r="1.50" fill="#221f1b" opacity="0.160"></circle><circle cx="205.3" cy="173.2" r="1.50" fill="#221f1b" opacity="0.160"></circle><circle cx="231.7" cy="202.8" r="1.50" fill="#221f1b" opacity="0.160"></circle><circle cx="246.7" cy="178.2" r="1.50" fill="#221f1b" opacity="0.160"></circle><circle cx="305.1" cy="162.2" r="1.50" fill="#221f1b" opacity="0.160"></circle><circle cx="333.9" cy="188.5" r="1.50" fill="#221f1b" opacity="0.214"></circle><circle cx="356.4" cy="179.3" r="1.50" fill="#221f1b" opacity="0.214"></circle><circle cx="366.2" cy="185.2" r="1.50" fill="#221f1b" opacity="0.214"></circle><circle cx="404.6" cy="171.6" r="1.50" fill="#221f1b" opacity="0.214"></circle><circle cx="433.6" cy="172.3" r="1.50" fill="#221f1b" opacity="0.214"></circle><circle cx="455.5" cy="191.4" r="1.50" fill="#221f1b" opacity="0.214"></circle><circle cx="501.7" cy="176.4" r="1.50" fill="#221f1b" opacity="0.214"></circle><circle cx="508.7" cy="174.3" r="1.50" fill="#221f1b" opacity="0.214"></circle><circle cx="534.0" cy="187.9" r="1.50" fill="#221f1b" opacity="0.214"></circle><circle cx="576.4" cy="186.8" r="1.50" fill="#221f1b" opacity="0.214"></circle><circle cx="599.9" cy="182.6" r="1.50" fill="#221f1b" opacity="0.272"></circle><circle cx="624.1" cy="181.8" r="1.50" fill="#221f1b" opacity="0.272"></circle><circle cx="658.7" cy="180.1" r="1.50" fill="#221f1b" opacity="0.272"></circle><circle cx="679.8" cy="184.9" r="1.50" fill="#221f1b" opacity="0.272"></circle><circle cx="712.8" cy="177.6" r="1.50" fill="#221f1b" opacity="0.272"></circle><circle cx="740.5" cy="182.0" r="1.50" fill="#221f1b" opacity="0.272"></circle><circle cx="767.8" cy="177.8" r="1.50" fill="#221f1b" opacity="0.272"></circle><circle cx="795.9" cy="180.4" r="1.50" fill="#221f1b" opacity="0.272"></circle><circle cx="828.9" cy="186.8" r="1.50" fill="#221f1b" opacity="0.272"></circle><circle cx="856.1" cy="181.4" r="1.50" fill="#221f1b" opacity="0.272"></circle><circle cx="882.0" cy="182.0" r="1.50" fill="#221f1b" opacity="0.320"></circle><circle cx="910.0" cy="182.0" r="1.50" fill="#221f1b" opacity="0.320"></circle><circle cx="938.0" cy="182.0" r="1.50" fill="#221f1b" opacity="0.320"></circle><circle cx="966.0" cy="182.0" r="1.50" fill="#221f1b" opacity="0.320"></circle><circle cx="994.0" cy="182.0" r="1.50" fill="#221f1b" opacity="0.320"></circle><circle cx="1022.0" cy="182.0" r="1.50" fill="#221f1b" opacity="0.320"></circle><circle cx="1050.0" cy="182.0" r="1.50" fill="#221f1b" opacity="0.320"></circle><circle cx="1078.0" cy="182.0" r="1.50" fill="#221f1b" opacity="0.320"></circle><circle cx="1106.0" cy="182.0" r="1.50" fill="#221f1b" opacity="0.320"></circle><circle cx="1134.0" cy="182.0" r="1.50" fill="#221f1b" opacity="0.320"></circle><circle cx="1162.0" cy="182.0" r="1.50" fill="#221f1b" opacity="0.320"></circle><circle cx="19.2" cy="207.2" r="1.50" fill="#221f1b" opacity="0.160"></circle><circle cx="23.4" cy="195.7" r="1.50" fill="#221f1b" opacity="0.160"></circle><circle cx="50.5" cy="206.2" r="1.50" fill="#221f1b" opacity="0.160"></circle><circle cx="108.0" cy="216.8" r="1.50" fill="#221f1b" opacity="0.160"></circle><circle cx="118.0" cy="228.0" r="1.50" fill="#221f1b" opacity="0.160"></circle><circle cx="165.9" cy="222.9" r="1.50" fill="#221f1b" opacity="0.160"></circle><circle cx="171.8" cy="205.0" r="1.50" fill="#221f1b" opacity="0.160"></circle><circle cx="214.3" cy="215.5" r="1.50" fill="#221f1b" opacity="0.160"></circle><circle cx="217.0" cy="220.9" r="1.50" fill="#221f1b" opacity="0.160"></circle><circle cx="262.5" cy="200.6" r="1.50" fill="#221f1b" opacity="0.160"></circle><circle cx="296.2" cy="201.5" r="1.50" fill="#221f1b" opacity="0.160"></circle><circle cx="311.7" cy="197.3" r="1.50" fill="#221f1b" opacity="0.214"></circle><circle cx="345.0" cy="207.9" r="1.50" fill="#221f1b" opacity="0.214"></circle><circle cx="374.7" cy="200.8" r="1.50" fill="#221f1b" opacity="0.214"></circle><circle cx="395.0" cy="209.6" r="1.50" fill="#221f1b" opacity="0.214"></circle><circle cx="423.6" cy="205.0" r="1.50" fill="#221f1b" opacity="0.214"></circle><circle cx="459.1" cy="206.7" r="1.50" fill="#221f1b" opacity="0.214"></circle><circle cx="487.5" cy="215.2" r="1.50" fill="#221f1b" opacity="0.214"></circle><circle cx="515.5" cy="203.0" r="1.50" fill="#221f1b" opacity="0.214"></circle><circle cx="552.2" cy="222.7" r="1.50" fill="#221f1b" opacity="0.214"></circle><circle cx="581.5" cy="201.9" r="1.50" fill="#221f1b" opacity="0.214"></circle><circle cx="602.6" cy="208.8" r="1.50" fill="#221f1b" opacity="0.272"></circle><circle cx="634.4" cy="211.7" r="1.50" fill="#221f1b" opacity="0.272"></circle><circle cx="661.8" cy="204.1" r="1.50" fill="#221f1b" opacity="0.272"></circle><circle cx="682.1" cy="204.5" r="1.50" fill="#221f1b" opacity="0.272"></circle><circle cx="709.0" cy="209.5" r="1.50" fill="#221f1b" opacity="0.272"></circle><circle cx="743.7" cy="213.7" r="1.50" fill="#221f1b" opacity="0.272"></circle><circle cx="773.6" cy="208.4" r="1.50" fill="#221f1b" opacity="0.272"></circle><circle cx="798.0" cy="209.9" r="1.50" fill="#221f1b" opacity="0.272"></circle><circle cx="827.4" cy="204.4" r="1.50" fill="#221f1b" opacity="0.272"></circle><circle cx="850.2" cy="204.4" r="1.50" fill="#221f1b" opacity="0.272"></circle><circle cx="882.0" cy="210.0" r="1.50" fill="#221f1b" opacity="0.320"></circle><circle cx="910.0" cy="210.0" r="1.50" fill="#221f1b" opacity="0.320"></circle><circle cx="938.0" cy="210.0" r="1.50" fill="#221f1b" opacity="0.320"></circle><circle cx="966.0" cy="210.0" r="1.50" fill="#221f1b" opacity="0.320"></circle><circle cx="994.0" cy="210.0" r="1.50" fill="#221f1b" opacity="0.320"></circle><circle cx="1022.0" cy="210.0" r="1.50" fill="#221f1b" opacity="0.320"></circle><circle cx="1050.0" cy="210.0" r="1.50" fill="#221f1b" opacity="0.320"></circle><circle cx="1078.0" cy="210.0" r="1.50" fill="#221f1b" opacity="0.320"></circle><circle cx="1106.0" cy="210.0" r="1.50" fill="#221f1b" opacity="0.320"></circle><circle cx="1134.0" cy="210.0" r="1.50" fill="#221f1b" opacity="0.320"></circle><circle cx="1162.0" cy="210.0" r="1.50" fill="#221f1b" opacity="0.320"></circle><circle cx="14.9" cy="233.9" r="1.50" fill="#221f1b" opacity="0.160"></circle><circle cx="50.6" cy="243.9" r="1.50" fill="#221f1b" opacity="0.160"></circle><circle cx="65.6" cy="251.4" r="1.50" fill="#221f1b" opacity="0.160"></circle><circle cx="98.1" cy="223.2" r="1.50" fill="#221f1b" opacity="0.160"></circle><circle cx="129.8" cy="227.5" r="1.50" fill="#221f1b" opacity="0.160"></circle><circle cx="156.8" cy="255.3" r="1.50" fill="#221f1b" opacity="0.160"></circle><circle cx="183.4" cy="232.4" r="1.50" fill="#221f1b" opacity="0.160"></circle><circle cx="215.5" cy="242.5" r="1.50" fill="#221f1b" opacity="0.160"></circle><circle cx="234.0" cy="238.4" r="1.50" fill="#221f1b" opacity="0.160"></circle><circle cx="270.7" cy="222.9" r="1.50" fill="#221f1b" opacity="0.160"></circle><circle cx="308.9" cy="218.7" r="1.50" fill="#221f1b" opacity="0.160"></circle><circle cx="332.2" cy="248.0" r="1.50" fill="#221f1b" opacity="0.214"></circle><circle cx="347.1" cy="244.0" r="1.50" fill="#221f1b" opacity="0.214"></circle><circle cx="389.5" cy="237.5" r="1.50" fill="#221f1b" opacity="0.214"></circle><circle cx="402.5" cy="224.2" r="1.50" fill="#221f1b" opacity="0.214"></circle><circle cx="422.3" cy="236.2" r="1.50" fill="#221f1b" opacity="0.214"></circle><circle cx="471.4" cy="241.9" r="1.50" fill="#221f1b" opacity="0.214"></circle><circle cx="501.2" cy="249.8" r="1.50" fill="#221f1b" opacity="0.214"></circle><circle cx="529.6" cy="240.7" r="1.50" fill="#221f1b" opacity="0.214"></circle><circle cx="558.7" cy="229.9" r="1.50" fill="#221f1b" opacity="0.214"></circle><circle cx="586.4" cy="227.6" r="1.50" fill="#221f1b" opacity="0.214"></circle><circle cx="605.9" cy="241.9" r="1.50" fill="#221f1b" opacity="0.272"></circle><circle cx="630.8" cy="242.4" r="1.50" fill="#221f1b" opacity="0.272"></circle><circle cx="661.0" cy="234.4" r="1.50" fill="#221f1b" opacity="0.272"></circle><circle cx="684.5" cy="242.1" r="1.50" fill="#221f1b" opacity="0.272"></circle><circle cx="715.9" cy="236.6" r="1.50" fill="#221f1b" opacity="0.272"></circle><circle cx="747.6" cy="239.6" r="1.50" fill="#221f1b" opacity="0.272"></circle><circle cx="765.5" cy="233.9" r="1.50" fill="#221f1b" opacity="0.272"></circle><circle cx="800.1" cy="237.5" r="1.50" fill="#221f1b" opacity="0.272"></circle><circle cx="822.0" cy="241.7" r="1.50" fill="#221f1b" opacity="0.272"></circle><circle cx="851.5" cy="233.1" r="1.50" fill="#221f1b" opacity="0.272"></circle><circle cx="882.0" cy="238.0" r="1.50" fill="#221f1b" opacity="0.320"></circle><circle cx="910.0" cy="238.0" r="1.50" fill="#221f1b" opacity="0.320"></circle><circle cx="938.0" cy="238.0" r="1.50" fill="#221f1b" opacity="0.320"></circle><circle cx="966.0" cy="238.0" r="1.50" fill="#221f1b" opacity="0.320"></circle><circle cx="994.0" cy="238.0" r="1.50" fill="#221f1b" opacity="0.320"></circle><circle cx="1022.0" cy="238.0" r="1.50" fill="#221f1b" opacity="0.320"></circle><circle cx="1050.0" cy="238.0" r="1.50" fill="#221f1b" opacity="0.320"></circle><circle cx="1078.0" cy="238.0" r="1.50" fill="#221f1b" opacity="0.320"></circle><circle cx="1106.0" cy="238.0" r="1.50" fill="#221f1b" opacity="0.320"></circle><circle cx="1134.0" cy="238.0" r="1.50" fill="#221f1b" opacity="0.320"></circle><circle cx="1162.0" cy="238.0" r="1.50" fill="#221f1b" opacity="0.320"></circle><circle cx="-5.2" cy="284.0" r="1.50" fill="#221f1b" opacity="0.160"></circle><circle cx="59.1" cy="253.6" r="1.50" fill="#221f1b" opacity="0.160"></circle><circle cx="59.6" cy="259.4" r="1.50" fill="#221f1b" opacity="0.160"></circle><circle cx="110.2" cy="282.3" r="1.50" fill="#221f1b" opacity="0.160"></circle><circle cx="131.4" cy="248.6" r="1.50" fill="#221f1b" opacity="0.160"></circle><circle cx="150.4" cy="276.9" r="1.50" fill="#221f1b" opacity="0.160"></circle><circle cx="183.5" cy="253.6" r="1.50" fill="#221f1b" opacity="0.160"></circle><circle cx="197.9" cy="284.4" r="1.50" fill="#221f1b" opacity="0.160"></circle><circle cx="251.0" cy="281.2" r="1.50" fill="#221f1b" opacity="0.160"></circle><circle cx="280.9" cy="283.1" r="1.50" fill="#221f1b" opacity="0.160"></circle><circle cx="279.7" cy="257.2" r="1.50" fill="#221f1b" opacity="0.160"></circle><circle cx="328.6" cy="262.1" r="1.50" fill="#221f1b" opacity="0.214"></circle><circle cx="336.9" cy="275.3" r="1.50" fill="#221f1b" opacity="0.214"></circle><circle cx="385.9" cy="269.1" r="1.50" fill="#221f1b" opacity="0.214"></circle><circle cx="406.4" cy="273.3" r="1.50" fill="#221f1b" opacity="0.214"></circle><circle cx="439.6" cy="275.3" r="1.50" fill="#221f1b" opacity="0.214"></circle><circle cx="467.6" cy="258.9" r="1.50" fill="#221f1b" opacity="0.214"></circle><circle cx="478.3" cy="257.2" r="1.50" fill="#221f1b" opacity="0.214"></circle><circle cx="524.0" cy="277.5" r="1.50" fill="#221f1b" opacity="0.214"></circle><circle cx="542.7" cy="255.7" r="1.50" fill="#221f1b" opacity="0.214"></circle><circle cx="584.8" cy="265.9" r="1.50" fill="#221f1b" opacity="0.214"></circle><circle cx="598.0" cy="267.3" r="1.50" fill="#221f1b" opacity="0.272"></circle><circle cx="630.1" cy="268.4" r="1.50" fill="#221f1b" opacity="0.272"></circle><circle cx="655.3" cy="265.0" r="1.50" fill="#221f1b" opacity="0.272"></circle><circle cx="685.3" cy="262.1" r="1.50" fill="#221f1b" opacity="0.272"></circle><circle cx="707.7" cy="269.5" r="1.50" fill="#221f1b" opacity="0.272"></circle><circle cx="744.5" cy="260.7" r="1.50" fill="#221f1b" opacity="0.272"></circle><circle cx="767.5" cy="259.8" r="1.50" fill="#221f1b" opacity="0.272"></circle><circle cx="796.3" cy="261.7" r="1.50" fill="#221f1b" opacity="0.272"></circle><circle cx="820.2" cy="269.6" r="1.50" fill="#221f1b" opacity="0.272"></circle><circle cx="850.5" cy="271.5" r="1.50" fill="#221f1b" opacity="0.272"></circle><circle cx="882.0" cy="266.0" r="1.50" fill="#221f1b" opacity="0.320"></circle><circle cx="910.0" cy="266.0" r="1.50" fill="#221f1b" opacity="0.320"></circle><circle cx="938.0" cy="266.0" r="1.50" fill="#221f1b" opacity="0.320"></circle><circle cx="966.0" cy="266.0" r="1.50" fill="#221f1b" opacity="0.320"></circle><circle cx="994.0" cy="266.0" r="1.50" fill="#221f1b" opacity="0.320"></circle><circle cx="1022.0" cy="266.0" r="1.50" fill="#221f1b" opacity="0.320"></circle><circle cx="1050.0" cy="266.0" r="1.50" fill="#221f1b" opacity="0.320"></circle><circle cx="1078.0" cy="266.0" r="1.50" fill="#221f1b" opacity="0.320"></circle><circle cx="1106.0" cy="266.0" r="1.50" fill="#221f1b" opacity="0.320"></circle><circle cx="1134.0" cy="266.0" r="1.50" fill="#221f1b" opacity="0.320"></circle><circle cx="1162.0" cy="266.0" r="1.50" fill="#221f1b" opacity="0.320"></circle><circle cx="0.8" cy="303.1" r="1.50" fill="#221f1b" opacity="0.160"></circle><circle cx="45.7" cy="303.1" r="1.50" fill="#221f1b" opacity="0.160"></circle><circle cx="65.9" cy="283.5" r="1.50" fill="#221f1b" opacity="0.160"></circle><circle cx="79.3" cy="291.3" r="1.50" fill="#221f1b" opacity="0.160"></circle><circle cx="133.7" cy="289.3" r="1.50" fill="#221f1b" opacity="0.160"></circle><circle cx="138.2" cy="306.2" r="1.50" fill="#221f1b" opacity="0.160"></circle><circle cx="192.3" cy="295.4" r="1.50" fill="#221f1b" opacity="0.160"></circle><circle cx="230.7" cy="311.2" r="1.50" fill="#221f1b" opacity="0.160"></circle><circle cx="251.9" cy="293.6" r="1.50" fill="#221f1b" opacity="0.160"></circle><circle cx="264.4" cy="282.3" r="1.50" fill="#221f1b" opacity="0.160"></circle><circle cx="294.5" cy="287.6" r="1.50" fill="#221f1b" opacity="0.160"></circle><circle cx="328.9" cy="295.4" r="1.50" fill="#221f1b" opacity="0.214"></circle><circle cx="342.4" cy="305.3" r="1.50" fill="#221f1b" opacity="0.214"></circle><circle cx="378.8" cy="294.8" r="1.50" fill="#221f1b" opacity="0.214"></circle><circle cx="403.9" cy="293.1" r="1.50" fill="#221f1b" opacity="0.214"></circle><circle cx="440.2" cy="307.6" r="1.50" fill="#221f1b" opacity="0.214"></circle><circle cx="456.0" cy="301.9" r="1.50" fill="#221f1b" opacity="0.214"></circle><circle cx="482.9" cy="297.9" r="1.50" fill="#221f1b" opacity="0.214"></circle><circle cx="523.7" cy="303.8" r="1.50" fill="#221f1b" opacity="0.214"></circle><circle cx="544.5" cy="291.4" r="1.50" fill="#221f1b" opacity="0.214"></circle><circle cx="565.9" cy="293.6" r="1.50" fill="#221f1b" opacity="0.214"></circle><circle cx="607.7" cy="290.5" r="1.50" fill="#221f1b" opacity="0.272"></circle><circle cx="626.9" cy="298.3" r="1.50" fill="#221f1b" opacity="0.272"></circle><circle cx="660.9" cy="289.9" r="1.50" fill="#221f1b" opacity="0.272"></circle><circle cx="683.4" cy="293.3" r="1.50" fill="#221f1b" opacity="0.272"></circle><circle cx="715.4" cy="300.3" r="1.50" fill="#221f1b" opacity="0.272"></circle><circle cx="736.6" cy="299.8" r="1.50" fill="#221f1b" opacity="0.272"></circle><circle cx="769.4" cy="292.6" r="1.50" fill="#221f1b" opacity="0.272"></circle><circle cx="796.9" cy="291.5" r="1.50" fill="#221f1b" opacity="0.272"></circle><circle cx="823.4" cy="298.6" r="1.50" fill="#221f1b" opacity="0.272"></circle><circle cx="853.1" cy="294.9" r="1.50" fill="#221f1b" opacity="0.272"></circle><circle cx="882.0" cy="294.0" r="1.50" fill="#221f1b" opacity="0.320"></circle><circle cx="910.0" cy="294.0" r="1.50" fill="#221f1b" opacity="0.320"></circle><circle cx="938.0" cy="294.0" r="1.50" fill="#221f1b" opacity="0.320"></circle><circle cx="966.0" cy="294.0" r="1.50" fill="#221f1b" opacity="0.320"></circle><circle cx="994.0" cy="294.0" r="1.50" fill="#221f1b" opacity="0.320"></circle><circle cx="1022.0" cy="294.0" r="1.50" fill="#221f1b" opacity="0.320"></circle><circle cx="1050.0" cy="294.0" r="1.50" fill="#221f1b" opacity="0.320"></circle><circle cx="1078.0" cy="294.0" r="1.50" fill="#221f1b" opacity="0.320"></circle><circle cx="1106.0" cy="294.0" r="1.50" fill="#221f1b" opacity="0.320"></circle><circle cx="1134.0" cy="294.0" r="1.50" fill="#221f1b" opacity="0.320"></circle><circle cx="1162.0" cy="294.0" r="1.50" fill="#221f1b" opacity="0.320"></circle><circle cx="33.2" cy="313.0" r="1.50" fill="#221f1b" opacity="0.160"></circle><circle cx="32.9" cy="315.2" r="1.50" fill="#221f1b" opacity="0.160"></circle><circle cx="78.6" cy="327.8" r="1.50" fill="#221f1b" opacity="0.160"></circle><circle cx="105.8" cy="319.6" r="1.50" fill="#221f1b" opacity="0.160"></circle><circle cx="110.3" cy="306.3" r="1.50" fill="#221f1b" opacity="0.160"></circle><circle cx="140.2" cy="307.6" r="1.50" fill="#221f1b" opacity="0.160"></circle><circle cx="176.2" cy="325.2" r="1.50" fill="#221f1b" opacity="0.160"></circle><circle cx="191.9" cy="301.5" r="1.50" fill="#221f1b" opacity="0.160"></circle><circle cx="219.7" cy="307.4" r="1.50" fill="#221f1b" opacity="0.160"></circle><circle cx="282.0" cy="309.0" r="1.50" fill="#221f1b" opacity="0.160"></circle><circle cx="309.4" cy="301.5" r="1.50" fill="#221f1b" opacity="0.160"></circle><circle cx="318.1" cy="309.1" r="1.50" fill="#221f1b" opacity="0.214"></circle><circle cx="339.7" cy="314.5" r="1.50" fill="#221f1b" opacity="0.214"></circle><circle cx="384.4" cy="335.6" r="1.50" fill="#221f1b" opacity="0.214"></circle><circle cx="408.0" cy="312.2" r="1.50" fill="#221f1b" opacity="0.214"></circle><circle cx="438.7" cy="322.8" r="1.50" fill="#221f1b" opacity="0.214"></circle><circle cx="469.4" cy="335.6" r="1.50" fill="#221f1b" opacity="0.214"></circle><circle cx="485.5" cy="321.2" r="1.50" fill="#221f1b" opacity="0.214"></circle><circle cx="523.8" cy="331.7" r="1.50" fill="#221f1b" opacity="0.214"></circle><circle cx="554.3" cy="312.1" r="1.50" fill="#221f1b" opacity="0.214"></circle><circle cx="578.0" cy="329.2" r="1.50" fill="#221f1b" opacity="0.214"></circle><circle cx="605.9" cy="325.4" r="1.50" fill="#221f1b" opacity="0.272"></circle><circle cx="633.5" cy="320.7" r="1.50" fill="#221f1b" opacity="0.272"></circle><circle cx="663.3" cy="323.9" r="1.50" fill="#221f1b" opacity="0.272"></circle><circle cx="687.7" cy="327.4" r="1.50" fill="#221f1b" opacity="0.272"></circle><circle cx="714.4" cy="326.5" r="1.50" fill="#221f1b" opacity="0.272"></circle><circle cx="737.0" cy="321.2" r="1.50" fill="#221f1b" opacity="0.272"></circle><circle cx="764.9" cy="322.4" r="1.50" fill="#221f1b" opacity="0.272"></circle><circle cx="803.9" cy="324.6" r="1.50" fill="#221f1b" opacity="0.272"></circle><circle cx="830.8" cy="324.2" r="1.50" fill="#221f1b" opacity="0.272"></circle><circle cx="851.6" cy="322.3" r="1.50" fill="#221f1b" opacity="0.272"></circle><circle cx="882.0" cy="322.0" r="1.50" fill="#221f1b" opacity="0.320"></circle><circle cx="910.0" cy="322.0" r="1.50" fill="#221f1b" opacity="0.320"></circle><circle cx="938.0" cy="322.0" r="1.50" fill="#221f1b" opacity="0.320"></circle><circle cx="966.0" cy="322.0" r="1.50" fill="#221f1b" opacity="0.320"></circle><circle cx="994.0" cy="322.0" r="1.50" fill="#221f1b" opacity="0.320"></circle><circle cx="1022.0" cy="322.0" r="1.50" fill="#221f1b" opacity="0.320"></circle><circle cx="1050.0" cy="322.0" r="1.50" fill="#221f1b" opacity="0.320"></circle><circle cx="1078.0" cy="322.0" r="1.50" fill="#221f1b" opacity="0.320"></circle><circle cx="1106.0" cy="322.0" r="1.50" fill="#221f1b" opacity="0.320"></circle><circle cx="1134.0" cy="322.0" r="1.50" fill="#221f1b" opacity="0.320"></circle><circle cx="1162.0" cy="322.0" r="1.50" fill="#221f1b" opacity="0.320"></circle></svg>